PathFileType	4	(X/Y/Z)	s03c0202.trc
DataRate	CameraRate	NumFrames	NumMarkers	Units	OrigDataRate	OrigDataStartFrame	OrigNumFrames
200	200	4	52	mm	200	1250	2000
Frame#	Time	racr			lacr			c7			jug			rlel			rdr			llel			ldr			s2			lic			ric			lasi			rasi			rpsi			lpsi			rgt			lgt			rth1			rth2			rth3			rth4			rlfc			rmfc			rsh1			rsh2			rsh3			rsh4			rlmal			rmmal			rcal			rtoe			rmt5			rmt1			lth1			lth2			lth4			lth3			llfc			lmfc			lsh1			lsh2			lsh3			lsh4			llmal			lmmal			lcal			ltoe			lmt1			lmt5			SBIKE			LBIKE			RBIKE			
		X1	Y1	Z1	X2	Y2	Z2	X3	Y3	Z3	X4	Y4	Z4	X5	Y5	Z5	X6	Y6	Z6	X7	Y7	Z7	X8	Y8	Z8	X9	Y9	Z9	X10	Y10	Z10	X11	Y11	Z11	X12	Y12	Z12	X13	Y13	Z13	X14	Y14	Z14	X15	Y15	Z15	X16	Y16	Z16	X17	Y17	Z17	X18	Y18	Z18	X19	Y19	Z19	X20	Y20	Z20	X21	Y21	Z21	X22	Y22	Z22	X23	Y23	Z23	X24	Y24	Z24	X25	Y25	Z25	X26	Y26	Z26	X27	Y27	Z27	X28	Y28	Z28	X29	Y29	Z29	X30	Y30	Z30	X31	Y31	Z31	X32	Y32	Z32	X33	Y33	Z33	X34	Y34	Z34	X35	Y35	Z35	X36	Y36	Z36	X37	Y37	Z37	X38	Y38	Z38	X39	Y39	Z39	X40	Y40	Z40	X41	Y41	Z41	X42	Y42	Z42	X43	Y43	Z43	X44	Y44	Z44	X45	Y45	Z45	X46	Y46	Z46	X47	Y47	Z47	X48	Y48	Z48	X49	Y49	Z49	X50	Y50	Z50	X51	Y51	Z51	X52	Y52	Z52	
1250	6.2500	488.609653	1358.543783	-88.142075	467.569969	1401.166340	-392.683962	418.721902	1466.214659	-225.010367	420.584106	1290.005528	-248.661825	535.456762	1165.469618	101.256898	723.601229	990.947390	-23.699549	498.456697	1182.139131	-560.911192	703.862141	982.441258	-465.930281	-109.767692	1196.439005	-235.093768	52.821894	1249.235476	-430.497387	50.082481	1224.908037	-54.344946	74.620626	1173.958712	-391.749956	79.967350	1171.772738	-103.753259	-86.628728	1246.039054	-194.605528	-80.237877	1248.068380	-275.677824	21.403502	1146.978684	-45.856758	-3.628258	1105.825968	-439.416029	153.283079	1071.519597	-31.786029	242.079001	1072.570563	-34.314696	318.408797	1032.749910	-35.640069	250.655168	1105.588674	-50.344168	431.252722	965.124204	-59.716007	434.957888	945.120566	-190.087427	330.801388	836.488434	-40.879154	286.582856	761.440186	-59.180465	210.298601	716.944116	-61.697279	308.466282	743.931063	-85.050661	111.389947	630.682532	-84.471743	144.550895	628.345951	-169.712938	36.084116	620.011184	-126.152413	293.495948	445.865345	-117.197414	184.756644	500.272704	-54.550344	216.022205	494.813359	-165.453619	74.686031	960.470008	-463.694614	136.917790	900.638495	-470.732988	168.718129	920.266899	-472.020888	164.795037	816.713896	-455.910917	250.966048	719.384962	-442.121362	262.373243	708.365894	-321.640808	214.566832	550.162452	-460.233712	231.158881	468.641720	-444.406485	202.542817	383.054916	-433.904660	266.177528	468.693150	-425.875302	186.301095	257.917821	-413.369482	223.330684	273.261842	-328.495991	126.442131	217.499685	-364.616849	435.132045	190.365270	-363.393474	342.615631	196.904065	-323.965522	314.122844	169.419013	-436.943870	-217.326280	944.120544	-235.815753	-11.907593	80.655100	-435.692995	-11.982387	81.176145	-35.271757	
1251	6.2550	487.112887	1358.755659	-85.282128	469.649432	1401.681169	-390.535355	418.978360	1466.725749	-223.027886	421.309723	1290.429867	-246.725442	533.332858	1164.417317	102.716317	723.195462	991.049730	-23.045828	500.124306	1182.999198	-559.863919	704.469527	982.279792	-466.011849	-109.158438	1196.811608	-240.162258	54.732725	1249.170511	-431.743559	49.328370	1225.864536	-55.369490	75.579972	1174.069144	-392.774238	79.436110	1172.455623	-105.251620	-86.585063	1246.829794	-197.043721	-79.585067	1248.728115	-278.223035	21.441089	1149.794858	-47.460387	-3.235383	1105.856221	-440.799957	153.893222	1075.749978	-33.213912	242.820895	1077.985915	-35.806666	319.629140	1038.859152	-37.039887	250.563746	1110.689193	-52.217746	433.304829	973.095471	-61.198305	437.988261	952.682929	-192.506074	334.809216	844.274948	-42.784438	291.459031	768.581846	-60.561711	215.730981	723.178898	-62.744406	313.567060	751.146856	-86.150576	118.153321	635.049380	-83.950132	150.787892	632.897535	-170.436562	42.275730	622.327488	-125.804334	303.346144	453.111994	-117.826638	193.710045	505.480889	-54.835903	225.105742	500.437674	-165.817971	73.125604	960.169422	-465.444878	134.591852	899.462726	-473.035608	166.607449	918.730788	-474.486169	161.433416	815.231408	-458.397306	246.562901	716.846364	-444.696563	259.343908	706.093547	-323.868579	208.492730	548.076624	-462.298168	224.686611	466.416822	-446.104448	195.521239	381.054140	-434.825635	259.905931	466.141518	-427.911646	178.785640	256.147844	-413.635310	216.452182	270.747468	-329.182079	118.656918	217.515627	-364.641067	426.516781	183.530357	-363.427745	334.227674	192.141016	-324.078090	305.133767	164.784789	-436.953633	-217.302114	944.177112	-236.102217	-11.908748	80.652458	-435.725710	-11.998340	81.244064	-35.297321	
1252	6.2600	485.588782	1358.974240	-82.544090	471.780447	1402.078883	-388.376420	419.256446	1467.237708	-221.077947	422.070640	1290.809352	-243.950740	531.291226	1163.191099	103.904313	722.647766	991.179028	-22.429415	501.835225	1183.911758	-558.850806	705.095626	982.059478	-466.094932	-108.467161	1197.460176	-240.540818	55.465291	1248.584756	-429.542817	48.955917	1226.842189	-56.665248	76.762695	1174.263835	-393.949601	78.912570	1173.094584	-106.729685	-87.032362	1247.910983	-199.078952	-80.392696	1250.233073	-279.161818	21.407957	1152.664136	-48.942705	-2.949718	1106.025506	-442.132760	154.443272	1080.128781	-34.643930	243.301985	1082.997684	-37.611946	320.527525	1044.648057	-38.943616	251.011501	1115.925591	-54.797131	435.468605	980.337562	-63.421458	440.091782	959.915172	-195.137901	338.501802	851.613517	-44.768500	296.134173	775.199731	-61.930210	221.083760	728.745945	-63.749873	318.471816	757.647107	-87.392451	124.820905	638.062305	-84.772145	157.123416	636.589915	-171.041164	49.507490	623.073181	-127.725229	313.335836	459.542416	-118.253574	202.857184	509.938128	-55.117328	234.250040	505.464775	-166.128511	71.885738	959.809254	-466.644467	132.449761	898.623819	-475.397444	164.679854	917.549957	-476.960945	158.464220	814.123290	-461.007302	242.687434	714.795004	-447.574768	256.458557	704.271626	-326.512624	202.743363	546.415421	-464.103244	218.373986	464.643422	-447.782054	188.522873	379.635370	-435.746033	253.807045	464.131829	-429.972247	171.106275	254.943333	-413.844269	209.552343	268.904156	-329.875403	110.725013	218.026425	-364.637539	417.610990	177.445717	-363.477298	325.601440	187.997689	-324.080309	295.882106	160.908399	-436.936532	-217.273918	944.222982	-236.330700	-11.906778	80.666930	-435.748485	-11.989841	81.357339	-35.368286	
1253	6.2650	484.077512	1359.260656	-79.794038	473.954394	1402.399405	-386.206377	419.510631	1467.694029	-219.141470	421.646054	1290.947443	-241.392009	529.250283	1161.986517	104.975579	721.998596	991.304673	-21.923885	503.564328	1184.748868	-557.960039	705.765321	981.840325	-466.195091	-109.051434	1198.491122	-240.998014	54.396944	1246.919621	-422.651788	48.368322	1228.069723	-57.632664	77.585319	1174.494541	-394.710136	78.397886	1173.690148	-108.182084	-87.110039	1249.795476	-200.601921	-79.812330	1251.002563	-281.083619	21.430938	1155.648175	-50.233118	-2.713880	1106.286701	-443.346022	154.946748	1084.388662	-36.094840	243.882353	1088.014603	-39.258732	321.228000	1050.035833	-41.607723	251.035601	1120.797125	-56.633565	437.068139	987.460887	-65.997158	441.908649	966.958978	-198.014306	341.949876	858.227050	-46.778371	300.779900	781.146178	-63.332036	226.357485	733.613982	-64.743098	323.213534	763.335758	-88.653669	131.805350	640.371182	-85.172147	163.343339	639.305007	-171.256364	56.489525	624.175884	-127.054755	323.488120	465.388548	-118.784062	212.164487	513.713709	-55.405425	243.077969	509.706207	-166.300009	70.568339	960.131747	-468.787311	130.589863	898.105576	-477.813082	162.830188	916.609227	-478.850387	155.895211	813.335603	-463.712639	239.382813	713.170707	-450.539310	254.233734	702.979466	-329.410333	197.396689	545.269558	-465.870934	212.277008	463.361174	-449.424925	181.593631	378.788691	-436.621903	247.901723	462.591971	-432.030964	163.364771	254.357165	-413.911392	202.674249	267.758446	-330.577158	102.701741	219.243431	-364.556163	408.550121	171.963631	-363.343456	316.792650	184.519573	-324.222364	286.439938	157.737161	-436.867982	-217.289209	944.196500	-236.312422	-11.918902	80.687768	-435.762234	-11.719361	81.046136	-35.447029	
